<svg width="104" height="77" viewBox="0 0 104 77" fill="none" xmlns="http://www.w3.org/2000/svg">
<rect width="104" height="10" transform="translate(0 36)" fill="url(#paint0_linear)"/>
<path d="M75.7167 8.55556C76.4254 8.55556 77 7.9171 77 7.12963V1.42593C77 0.638458 76.4254 0 75.7167 0H1.28333C0.574612 0 0 0.638458 0 1.42593V7.12963C0 7.9171 0.574612 8.55556 1.28333 8.55556H2.56667V68.4444H1.28333C0.574612 68.4444 0 69.0829 0 69.8704V75.5741C0 76.3615 0.574612 77 1.28333 77H75.7167C76.4254 77 77 76.3615 77 75.5741V69.8704C77 69.0829 76.4254 68.4444 75.7167 68.4444H74.4333V8.55556H75.7167ZM74.4333 74.1481H2.56667V71.2963H74.4333V74.1481ZM5.13333 68.4444V8.55556H71.8667V68.4444H5.13333ZM2.56667 5.7037V2.85185H74.4333V5.7037H2.56667Z" transform="translate(14)" fill="#31C37D"/>
<path d="M2.56667 36.1629L9.44662 28.5185H33.3667C33.7071 28.5185 34.0334 28.3681 34.274 28.1007L48.7667 11.9977V17.1111H51.3333V8.55556C51.3333 7.76809 50.7587 7.12963 50.05 7.12963H42.35V9.98148H46.952L32.8354 25.6667H8.91532C8.57491 25.6667 8.24862 25.8171 8.008 26.0845L2.56667 32.1304V0H0V39.9259C0 40.7134 0.574612 41.3519 1.28333 41.3519H56.4667V38.5H2.56667V36.1629Z" transform="translate(24.2666 22.8148)" fill="#31C37D"/>
<path d="M1.28333 17.1111V19.963H3.85V17.1111H5.13333V19.963H7.7V17.1111H8.98333C11.1004 17.1214 12.8242 15.223 12.8337 12.8708C12.838 11.8022 12.4806 10.7709 11.8323 9.98148C13.2591 8.24363 13.1478 5.5497 11.5837 3.96443C10.8732 3.24434 9.94503 2.84722 8.98333 2.85185H7.7V0H5.13333V2.85185H3.85V0H1.28333V2.85185C0.574612 2.85185 0 3.49031 0 4.27778V15.6852C0 16.4727 0.574612 17.1111 1.28333 17.1111ZM2.56667 5.7037H8.98333C9.69205 5.7037 10.2667 6.34216 10.2667 7.12963C10.2667 7.9171 9.69205 8.55556 8.98333 8.55556H2.56667V5.7037ZM2.56667 11.4074H8.98333C9.69205 11.4074 10.2667 12.0459 10.2667 12.8333C10.2667 13.6208 9.69205 14.2593 8.98333 14.2593H2.56667V11.4074Z" transform="translate(39.6665 18.537)" fill="#31C37D"/>
<path d="M14.1167 31.3704C21.9131 31.3704 28.2333 24.3479 28.2333 15.6852C28.2333 7.02251 21.9131 0 14.1167 0C6.32026 0 0 7.02251 0 15.6852C0.00914375 24.3436 6.32411 31.3602 14.1167 31.3704ZM14.1167 2.85185C20.4956 2.85185 25.6667 8.59744 25.6667 15.6852C25.6667 22.7728 20.4956 28.5185 14.1167 28.5185C7.73786 28.5185 2.56667 22.7728 2.56667 15.6852C2.57372 8.60083 7.74075 2.85969 14.1167 2.85185Z" transform="translate(31.9668 12.8334)" fill="#31C37D"/>
<path d="M2.56667 0H0V2.85185H2.56667V0Z" transform="translate(66.6167 14.2593)" fill="#31C37D"/>
<path d="M7.7 0H0V2.85185H7.7V0Z" transform="translate(71.75 14.2593)" fill="#31C37D"/>
<path d="M12.8333 0H0V2.85185H12.8333V0Z" transform="translate(66.6167 19.963)" fill="#31C37D"/>
<defs>
<linearGradient id="paint0_linear" x2="1" gradientUnits="userSpaceOnUse" gradientTransform="translate(104) scale(104 10) rotate(90)">
<stop stop-color="#0F1931"/>
<stop offset="1" stop-color="#0F1931"/>
</linearGradient>
</defs>
</svg>
