<svg width="104" height="77" viewBox="0 0 104 77" fill="none" xmlns="http://www.w3.org/2000/svg">
<rect width="104" height="10" transform="translate(0 36)" fill="url(#paint0_linear)"/>
<path d="M7.6983 -3.91637e-08C3.44659 -3.91637e-08 -1.99693e-06 3.44731 -1.99693e-06 7.6999C-1.99693e-06 11.9525 3.44659 15.3998 7.6983 15.3998C11.95 15.3998 15.3966 11.9525 15.3966 7.6999C15.3924 3.44924 11.9482 0.00433116 7.6983 -3.91637e-08ZM7.6983 12.8332C4.86388 12.8332 2.5661 10.5349 2.5661 7.6999C2.5661 4.86489 4.86388 2.56663 7.6983 2.56663C10.5327 2.56663 12.8305 4.86489 12.8305 7.6999C12.8305 10.5349 10.5327 12.8332 7.6983 12.8332Z" transform="translate(65.0559 28.2339)" fill="#31C37D"/>
<path d="M11.5478 2.56702C9.42198 -0.26799 5.4009 -0.842595 2.56648 1.2837C-0.267934 3.41 -0.84242 7.43191 1.28343 10.2669C1.64814 10.7533 2.08021 11.1855 2.56648 11.5502V20.5604C2.56648 21.2691 3.14097 21.8437 3.84954 21.8437H8.98174C9.6903 21.8437 10.2648 21.2691 10.2648 20.5604V11.5502C13.0992 9.42394 13.6737 5.40203 11.5478 2.56702ZM8.34021 9.75616C7.94407 9.98491 7.69965 10.4074 7.69869 10.8649V19.2771H5.13259V10.8649C5.13162 10.4074 4.8872 9.98491 4.49106 9.75616C3.30071 9.07857 2.56584 7.81386 2.56648 6.44392C2.56648 4.31762 4.28978 2.59397 6.41564 2.59397C8.54149 2.59397 10.2648 4.31762 10.2648 6.44392C10.2654 7.81386 9.53056 9.07857 8.34021 9.75616Z" transform="translate(34.2622 48.7397)" fill="#31C37D"/>
<path d="M76.7801 15.3992C76.238 13.8598 74.7826 12.8311 73.1508 12.8343C71.03 12.8303 69.3075 14.5467 69.3035 16.6681C69.3004 18.3001 70.3288 19.7559 71.8678 20.2981V34.6507H71.8024C71.1758 27.8757 65.8107 22.5097 59.0373 21.883V17.7314C61.0416 17.0227 62.0919 14.823 61.3832 12.8184C60.6745 10.8139 58.4753 9.76317 56.4712 10.472C54.4669 11.1808 53.4166 13.3805 54.1253 15.3851C54.5128 16.4815 55.3751 17.3439 56.4712 17.7314V21.883C48.7087 22.5909 42.9897 29.4587 43.6973 37.2228C43.8622 39.0324 44.3749 40.7931 45.2073 42.4083C45.1154 42.3782 45.0201 42.3588 44.9237 42.3506H41.0746V37.2173C41.0746 36.7836 41.0451 36.3588 41.0092 35.934H41.0746V5.1344H57.9903C58.6989 7.13911 60.8982 8.18966 62.9023 7.48079C64.9064 6.77192 65.9569 4.57231 65.2482 2.56777C64.5397 0.563069 62.3404 -0.487486 60.3362 0.221386C59.24 0.608948 58.3778 1.4715 57.9903 2.56777H39.7915C39.083 2.56777 38.5085 3.14238 38.5085 3.85109V28.7231C35.9076 24.7967 31.6535 22.2768 26.961 21.883V3.85093C26.961 3.14222 26.3866 2.56761 25.678 2.56761H7.4792C6.77063 0.562909 4.57133 -0.487486 2.5672 0.221226C0.563077 0.929937 -0.487421 3.12954 0.221144 5.13424C0.929709 7.13895 3.12902 8.1895 5.1333 7.48079C6.22951 7.09323 7.09172 6.23068 7.4792 5.1344H24.3949V21.883C22.1331 22.0702 19.9413 22.7598 17.9797 23.9016V19.0148C19.984 18.3061 21.0343 16.1063 20.3256 14.1017C19.6169 12.0972 17.4177 11.0465 15.4136 11.7554C13.4093 12.4639 12.359 14.6635 13.0677 16.6682C13.4552 17.7647 14.3175 18.627 15.4136 19.0146V25.7713C12.8231 28.0913 11.0956 31.2215 10.5136 34.6505H7.4792C6.77063 32.6458 4.57133 31.5953 2.5672 32.3042C0.563077 33.013 -0.487421 35.2126 0.221304 37.2172C0.929869 39.2219 3.12918 40.2724 5.1333 39.5636C6.22951 39.176 7.09172 38.3134 7.4792 37.2172H10.2814V42.3504H6.43223C5.72367 42.3504 5.14918 42.925 5.14918 43.6338V75.7167C5.14918 76.4254 5.72367 77 6.43223 77H44.9237C45.6323 77 46.2068 76.4254 46.2068 75.7167V44.0675C47.8032 46.3372 50.0353 48.084 52.622 49.0879V75.7167C52.622 76.4254 53.1965 77 53.9051 77H70.5847C71.2933 77 71.8678 76.4254 71.8678 75.7167V70.5834C71.8678 69.8747 71.2933 69.3001 70.5847 69.3001H62.8864V66.7335H66.7356C67.4442 66.7335 68.0186 66.1589 68.0186 65.4501V60.3169C68.0186 59.6082 67.4442 59.0336 66.7356 59.0336H62.8864V49.0879C67.8785 47.1549 71.3374 42.551 71.8049 37.2172H73.1508C73.8594 37.2172 74.4339 36.6426 74.4339 35.9339V20.2979C76.4343 19.5932 77.4848 17.3999 76.7801 15.3992ZM61.6034 2.56761C62.312 2.56761 62.8864 3.14222 62.8864 3.85093C62.8864 4.55964 62.312 5.13424 61.6034 5.13424C60.8948 5.13424 60.3203 4.55964 60.3203 3.85093C60.3203 3.14222 60.8948 2.56761 61.6034 2.56761ZM3.86613 5.13424C3.15757 5.13424 2.58308 4.55964 2.58308 3.85093C2.58308 3.14222 3.15757 2.56761 3.86613 2.56761C4.57469 2.56761 5.14918 3.14222 5.14918 3.85093C5.14918 4.55964 4.57469 5.13424 3.86613 5.13424ZM3.86613 37.2172C3.15757 37.2172 2.58308 36.6426 2.58308 35.9339C2.58308 35.2251 3.15757 34.6505 3.86613 34.6505C4.57469 34.6505 5.14918 35.2251 5.14918 35.9339C5.14918 36.6426 4.57469 37.2172 3.86613 37.2172ZM16.6966 14.1175C17.4052 14.1175 17.9797 14.6921 17.9797 15.4008C17.9797 16.1095 17.4052 16.6841 16.6966 16.6841C15.9881 16.6841 15.4136 16.1095 15.4136 15.4008C15.4136 14.6921 15.9881 14.1175 16.6966 14.1175ZM12.8475 37.2172C12.8475 30.1296 18.5919 24.384 25.678 24.384C32.7641 24.384 38.5085 30.1296 38.5085 37.2172V42.3504H34.6593V37.2172C34.6593 32.2559 30.6383 28.234 25.678 28.234C20.7177 28.234 16.6966 32.2559 16.6966 37.2172V42.3504H12.8475V37.2172ZM32.0932 37.2172V42.3504H19.2627V37.2172C19.2627 33.6735 22.135 30.8006 25.678 30.8006C29.221 30.8006 32.0932 33.6735 32.0932 37.2172ZM43.6407 74.4334H7.71528V44.9171H43.6407V74.4334ZM57.7542 12.8341C58.4628 12.8341 59.0373 13.4088 59.0373 14.1175C59.0373 14.8262 58.4628 15.4008 57.7542 15.4008C57.0457 15.4008 56.4712 14.8262 56.4712 14.1175C56.4712 13.4088 57.0457 12.8341 57.7542 12.8341ZM68.7699 39.4009C67.6377 43.0014 64.8182 45.8215 61.2185 46.9539C60.6839 47.122 60.3203 47.6177 60.3203 48.1781V60.317C60.3203 61.0258 60.8948 61.6004 61.6034 61.6004H65.4525V64.167H61.6034C60.8948 64.167 60.3203 64.7416 60.3203 65.4503V70.5836C60.3203 71.2923 60.8948 71.8669 61.6034 71.8669H69.3017V74.4335H55.1881V48.178C55.1881 47.6175 54.8246 47.1218 54.29 46.9537C48.2063 45.0401 44.8254 38.5558 46.7386 32.4708C48.6518 26.3858 55.1347 23.0043 61.2185 24.9179C67.3022 26.8316 70.6831 33.3159 68.7699 39.4009ZM73.1508 17.9674C72.4423 17.9674 71.8678 17.3928 71.8678 16.6841C71.8678 15.9754 72.4423 15.4008 73.1508 15.4008C73.8594 15.4008 74.4339 15.9754 74.4339 16.6841C74.4339 17.3928 73.8594 17.9674 73.1508 17.9674Z" transform="translate(15)" fill="#31C37D"/>
<path d="M5.1322 -3.91637e-08C4.79187 -3.91637e-08 4.46566 0.13539 4.22509 0.376012L0.375936 4.22596C0.135364 4.46659 -1.99693e-06 4.79287 -1.99693e-06 5.13327V14.1165H2.5661V5.66456L5.66338 2.56663H7.6983V-3.91637e-08H5.1322Z" transform="translate(58.6406 7.70093)" fill="#31C37D"/>
<path d="M2.5661 0H0V15.3998H2.5661V0Z" transform="translate(44.5271 0.000976562)" fill="#31C37D"/>
<path d="M8.50021 11.8309L2.5661 7.08391V-3.91637e-08H1.0866e-07V7.6999C-0.000160273 8.08971 0.176901 8.4585 0.481144 8.70217L6.41525 13.4492V19.2498H8.98135V12.8332C8.98151 12.4434 8.80445 12.0746 8.50021 11.8309Z" transform="translate(15.0171 10.2676)" fill="#31C37D"/>
<path d="M7.6983 2.77282e-10H-1.99693e-06V2.56663H6.41525V10.2665H8.98135V1.28332C8.98135 0.574605 8.40687 2.77282e-10 7.6983 2.77282e-10Z" transform="translate(83.0186 0.000976562)" fill="#31C37D"/>
<defs>
<linearGradient id="paint0_linear" x2="1" gradientUnits="userSpaceOnUse" gradientTransform="translate(104) scale(104 10) rotate(90)">
<stop stop-color="#121C36"/>
<stop offset="1" stop-color="#121C36"/>
</linearGradient>
</defs>
</svg>
