<svg width="104" height="77" viewBox="0 0 104 77" fill="none" xmlns="http://www.w3.org/2000/svg">
<rect width="104" height="10" transform="translate(0 36)" fill="url(#paint0_linear)"/>
<path d="M2.56047 1.5636e-06H1.28023C0.573226 1.5636e-06 1.56278e-06 0.573524 1.56278e-06 1.2809V6.4045C1.56278e-06 7.11188 0.573226 7.6854 1.28023 7.6854H2.56047C4.68165 7.6854 6.40117 5.96499 6.40117 3.8427C6.40117 1.72041 4.68165 1.5636e-06 2.56047 1.5636e-06ZM2.56047 5.1236V2.5618C3.26748 2.5618 3.8407 3.13532 3.8407 3.8427C3.8407 4.55008 3.26748 5.1236 2.56047 5.1236Z" transform="translate(66.6711 43.7323)" fill="#31C37D"/>
<path d="M2.56047 1.5636e-06H1.28023C0.573226 1.5636e-06 1.56278e-06 0.573524 1.56278e-06 1.2809V6.4045C1.56278e-06 7.11188 0.573226 7.6854 1.28023 7.6854H2.56047C4.68165 7.6854 6.40117 5.96499 6.40117 3.8427C6.40117 1.72041 4.68165 1.5636e-06 2.56047 1.5636e-06ZM2.56047 5.1236V2.5618C3.26748 2.5618 3.8407 3.13532 3.8407 3.8427C3.8407 4.55008 3.26748 5.1236 2.56047 5.1236Z" transform="translate(66.6711 56.5413)" fill="#31C37D"/>
<path d="M16.707 17.9326C18.1012 16.79 19.2035 14.6868 19.2035 10.8876C19.1997 6.5406 15.8539 2.92814 11.5221 2.59382V-8.79524e-07H8.96163V2.5618H6.40117V-8.79524e-07H3.8407V2.5618H1.28023C0.573226 2.5618 1.56278e-06 3.13532 1.56278e-06 3.8427V8.9663C1.56278e-06 9.67368 0.573226 10.2472 1.28023 10.2472H2.56047V25.618H1.28023C0.573226 25.618 1.56278e-06 26.1915 1.56278e-06 26.8989V32.0225C1.56278e-06 32.7299 0.573226 33.3034 1.28023 33.3034H5.12093V35.8652H7.6814V33.3034H8.96163V35.8652H11.5221V33.2714C15.8539 32.9371 19.1997 29.3246 19.2035 24.9775C19.2035 21.1784 18.1012 19.0752 16.707 17.9326ZM12.8023 19.2135C13.8521 19.2135 16.643 19.2135 16.643 24.9775C16.6395 28.1595 14.0622 30.7381 10.882 30.7416H2.56047V28.1798H3.8407C4.54771 28.1798 5.12093 27.6063 5.12093 26.8989V8.9663C5.12093 8.25892 4.54771 7.6854 3.8407 7.6854H2.56047V5.1236H10.882C14.0622 5.12712 16.6395 7.70573 16.643 10.8876C16.643 16.6517 13.8521 16.6517 12.8023 16.6517C12.0953 16.6517 11.5221 17.2252 11.5221 17.9326C11.5221 18.64 12.0953 19.2135 12.8023 19.2135Z" transform="translate(58.9897 36.0469)" fill="#31C37D"/>
<path d="M63.944 33.1966C60.8261 31.6975 57.4106 30.9204 53.9514 30.9233C50.4882 30.9273 47.071 31.7183 43.9579 33.2366C49.5258 21.7321 44.7179 7.88971 33.2193 2.31892C21.7208 -3.25188 7.8856 1.55854 2.31771 13.0631C-3.25018 24.5677 1.55773 38.41 13.0563 43.9808C19.4237 47.0657 26.8519 47.0657 33.2193 43.9808C27.7114 55.4476 32.5371 69.2107 43.9979 74.7215C55.4587 80.2322 69.2147 75.404 74.7226 63.9372C80.2306 52.4705 75.4048 38.7074 63.944 33.1966ZM23.2258 43.7323C11.8748 43.7706 2.64209 34.5949 2.604 23.2381C2.56575 11.8812 11.7367 2.64362 23.0876 2.60552C34.4386 2.56725 43.6713 11.743 43.7094 23.0998C43.7272 28.3783 41.7153 33.4616 38.0906 37.2971C37.8123 37.5609 37.5414 37.832 37.2777 38.1105C33.4877 41.7183 28.457 43.7309 23.2258 43.7323ZM68.0284 68.8751C64.2242 72.4735 59.1866 74.4771 53.9514 74.4739C42.6548 74.4901 33.484 65.3406 33.468 54.0383C33.4605 48.7853 35.4722 43.7306 39.0866 39.9204C39.364 39.6565 39.6351 39.3854 39.8996 39.107C48.1155 31.3355 61.0727 31.6991 68.8402 39.9194C76.6079 48.1396 76.2443 61.1036 68.0284 68.8751Z" transform="translate(14)" fill="#31C37D"/>
<path d="M8.96163 12.809C8.25462 12.809 7.6814 12.2355 7.6814 11.5281C7.6814 10.8207 8.25462 10.2472 8.96163 10.2472C9.66864 10.2472 10.2419 10.8207 10.2419 11.5281C10.2419 12.2355 10.8151 12.809 11.5221 12.809H16.643C17.35 12.809 17.9233 12.2355 17.9233 11.5281C17.918 7.07489 14.647 3.3004 10.2419 2.66427V-2.68743e-07H7.6814V2.66427C2.78851 3.40975 -0.574024 7.98289 0.171231 12.8783C0.834072 17.2326 4.55955 20.4604 8.96163 20.4944C9.66864 20.4944 10.2419 21.0679 10.2419 21.7753C10.2419 22.4827 9.66864 23.0562 8.96163 23.0562C8.25462 23.0562 7.6814 22.4827 7.6814 21.7753C7.6814 21.0679 7.10817 20.4944 6.40116 20.4944H1.28023C0.573225 20.4944 3.41859e-07 21.0679 3.41859e-07 21.7753C0.0052813 26.2285 3.27628 30.003 7.6814 30.6391V33.3034H10.2419V30.6391C15.1348 29.8936 18.4973 25.3205 17.752 20.4251C17.0893 16.0708 13.3637 12.8429 8.96163 12.809ZM8.95907 28.1798C5.91772 28.1792 3.29676 26.0376 2.68849 23.0562H5.33857C6.04558 25.0571 8.24006 26.1057 10.2398 25.3982C12.2395 24.6906 13.2877 22.4952 12.5805 20.4944C12.0382 18.9597 10.5883 17.9334 8.96147 17.9326C5.42627 17.9318 2.56095 15.0639 2.56159 11.5268C2.56239 7.98977 5.42883 5.12296 8.96403 5.1236C12.0054 5.12424 14.6263 7.26574 15.2346 10.2472H12.5845C11.8775 8.24627 9.68304 7.1977 7.68332 7.90523C5.68343 8.61261 4.6354 10.8082 5.34257 12.809C5.88491 14.3437 7.33477 15.37 8.96163 15.3708C12.4968 15.3716 15.3622 18.2395 15.3615 21.7766C15.3607 25.3138 12.4943 28.1806 8.95907 28.1798Z" transform="translate(28.2642 6.58618)" fill="#31C37D"/>
<path d="M2.08422 -7.81799e-08L1.75813e-07 1.4884C3.51168 6.40674 3.51168 13.0143 1.75813e-07 17.9326L2.08422 19.421C6.23073 13.6121 6.23073 5.80904 2.08422 -7.81799e-08Z" transform="translate(50.2661 13.5275)" fill="#31C37D"/>
<path d="M5.19411 1.4884L3.10989 -7.81799e-08C-1.03663 5.80904 -1.03663 13.612 3.10989 19.421L5.19411 17.9326C1.68243 13.0143 1.68243 6.40674 5.19411 1.4884Z" transform="translate(18.9912 13.5275)" fill="#31C37D"/>
<path d="M2.08422 -7.81799e-08L-2.26604e-06 1.4884C3.51168 6.40674 3.51168 13.0143 -2.26604e-06 17.9326L2.08422 19.421C6.23073 13.6121 6.23073 5.80904 2.08422 -7.81799e-08Z" transform="translate(80.9919 44.269)" fill="#31C37D"/>
<path d="M5.19411 1.4884L3.10989 -7.81799e-08C-1.03663 5.80904 -1.03663 13.612 3.10989 19.421L5.19411 17.9326C1.68243 13.0143 1.68243 6.40674 5.19411 1.4884Z" transform="translate(49.7168 44.269)" fill="#31C37D"/>
<path d="M2.36459 3.1272e-07L-3.41859e-08 0.982448C0.337981 1.7971 0.709249 2.60663 1.10228 3.39054L3.39134 2.23773C3.02519 1.51146 2.67825 0.757012 2.36459 3.1272e-07Z" transform="translate(18.2886 51.8647)" fill="#31C37D"/>
<path d="M2.5451 1.36815e-06L-4.51742e-08 0.275395C0.093457 1.15281 0.2202 2.03407 0.375108 2.89739L2.89589 2.44395C2.74994 1.63955 2.63344 0.818496 2.5451 1.36815e-06Z" transform="translate(15.6758 42.3362)" fill="#31C37D"/>
<path d="M2.48109 -2.3454e-06L-1.46511e-07 0.631481C0.217639 1.48456 0.469846 2.34149 0.747656 3.17663L3.1801 2.36582C2.91637 1.58831 2.68849 0.792875 2.48109 -2.3454e-06Z" transform="translate(16.6143 47.1908)" fill="#31C37D"/>
<path d="M1.99204 1.87632e-06L6.83718e-08 1.61521C0.553061 2.29921 1.13685 2.97297 1.736 3.61598L3.60898 1.86499C3.0508 1.26681 2.5067 0.63789 1.99204 1.87632e-06Z" transform="translate(23.686 60.3123)" fill="#31C37D"/>
<path d="M2.19944 -7.42709e-07L-9.7674e-09 1.30908C0.446801 2.06097 0.929449 2.81158 1.43386 3.53785L3.536 2.07378C3.06616 1.39874 2.6168 0.700651 2.19944 -7.42709e-07Z" transform="translate(20.6636 56.2698)" fill="#31C37D"/>
<path d="M1.45947 -1.5636e-06L1.95348e-08 2.10324C0.731013 2.6156 1.47995 3.09337 2.22761 3.53656L3.53472 1.33598C2.83956 0.920969 2.14055 0.47265 1.45947 -1.5636e-06Z" transform="translate(31.4187 67.0255)" fill="#31C37D"/>
<path d="M1.74496 7.81799e-08L-3.22324e-07 1.87396C0.640116 2.4747 1.31864 3.05879 2.00228 3.61086L3.6077 1.61393C2.96758 1.10157 2.34539 0.558472 1.74496 7.81799e-08Z" transform="translate(27.2964 63.927)" fill="#31C37D"/>
<path d="M1.14709 1.40724e-06L-2.93022e-07 2.28769C0.786063 2.68349 1.59773 3.05623 2.41068 3.39182L3.39006 1.02472C2.63344 0.7109 1.8781 0.365058 1.14709 1.40724e-06Z" transform="translate(35.9712 69.5463)" fill="#31C37D"/>
<path d="M0.806547 8.59979e-07L-1.05488e-06 2.43115C0.835991 2.7091 1.69119 2.96016 2.54254 3.17535L3.1737 0.694248C2.38123 0.491866 1.58493 0.258743 0.806547 8.59979e-07Z" transform="translate(40.8667 71.4331)" fill="#31C37D"/>
<path d="M0.454483 -2.3454e-06L-1.09395e-06 2.52209C0.853914 2.6758 1.736 2.80133 2.62192 2.89611L2.89461 0.349687C2.06886 0.260024 1.24695 0.143458 0.454483 -2.3454e-06Z" transform="translate(45.9966 72.6487)" fill="#31C37D"/>
<path d="M2.52078 4.2999e-07L4.68835e-07 0.453439C0.145947 1.25784 0.262446 2.0789 0.350782 2.89739L2.89589 2.622C2.80243 1.74458 2.67568 0.863327 2.52078 4.2999e-07Z" transform="translate(86.6057 31.9839)" fill="#31C37D"/>
<path d="M1.31224 2.14995e-07L-1.36744e-06 2.20059C0.695165 2.6156 1.39418 3.06391 2.07526 3.53656L3.53472 1.43333C2.80371 0.92481 2.05477 0.443191 1.31224 2.14995e-07Z" transform="translate(70.2239 6.6554)" fill="#31C37D"/>
<path d="M0.97938 -1.14827e-07L-2.38325e-06 2.3671C0.756615 2.68092 1.51196 3.02677 2.24297 3.39182L3.39006 1.10414C2.60399 0.708338 1.79233 0.335596 0.97938 -1.14827e-07Z" transform="translate(65.8159 4.2793)" fill="#31C37D"/>
<path d="M0.272689 -7.20721e-08L2.1879e-06 2.54643C0.825752 2.63609 1.64766 2.75265 2.44012 2.89611L2.89461 0.374023C2.04069 0.220315 1.15861 0.0947865 0.272689 -7.20721e-08Z" transform="translate(56.2859 1.67273)" fill="#31C37D"/>
<path d="M0.631154 -1.46587e-07L-8.20462e-07 2.4811C0.792463 2.68348 1.58877 2.91661 2.36715 3.17535L3.1737 0.741641C2.33386 0.459843 1.48251 0.208787 0.631154 -1.46587e-07Z" transform="translate(61.1367 2.61548)" fill="#31C37D"/>
<path d="M1.60541 2.93175e-07L1.21116e-06 1.99692C0.640118 2.50928 1.26231 3.05238 1.86274 3.61086L3.6077 1.7369C2.96246 1.1336 2.28906 0.552068 1.60541 2.93175e-07Z" transform="translate(74.2732 9.67957)" fill="#31C37D"/>
<path d="M2.10214 9.77249e-08L5.86044e-07 1.46407C0.469846 2.1391 0.919206 2.83719 1.33656 3.53784L3.53729 2.22877C3.0892 1.47688 2.60655 0.72627 2.10214 9.77249e-08Z" transform="translate(80.9778 17.4098)" fill="#31C37D"/>
<path d="M2.28649 1.19224e-06L-1.32837e-06 1.14769C0.366145 1.87908 0.711807 2.63353 1.02418 3.39054L3.38877 2.40809C3.05079 1.59344 2.67953 0.783912 2.28649 1.19224e-06Z" transform="translate(83.4973 21.9622)" fill="#31C37D"/>
<path d="M1.87298 2.3454e-07L1.52371e-06 1.74459C0.558183 2.34277 1.10228 2.97169 1.61694 3.60958L3.60898 2.00077C3.05592 1.31677 2.47213 0.643012 1.87298 2.3454e-07Z" transform="translate(77.8823 13.2955)" fill="#31C37D"/>
<path d="M2.42988 1.1727e-06L8.98601e-07 0.81081C0.256047 1.58832 0.49289 2.38375 0.695166 3.17791L3.17754 2.54515C2.9599 1.69207 2.70769 0.835148 2.42988 1.1727e-06Z" transform="translate(85.387 26.8501)" fill="#31C37D"/>
<defs>
<linearGradient id="paint0_linear" x2="1" gradientUnits="userSpaceOnUse" gradientTransform="translate(104) scale(104 10) rotate(90)">
<stop stop-color="#0F1931"/>
<stop offset="1" stop-color="#0F1931"/>
</linearGradient>
</defs>
</svg>
