<svg width="104" height="77" viewBox="0 0 104 77" fill="none" xmlns="http://www.w3.org/2000/svg">
<rect width="104" height="10" transform="translate(0 36)" fill="url(#paint0_linear)"/>
<path d="M2.56667 0H0V2.56667H2.56667V0Z" transform="translate(19.1333 5.1333)" fill="#31C37D"/>
<path d="M2.56667 0H0V2.56667H2.56667V0Z" transform="translate(24.2666 5.1333)" fill="#31C37D"/>
<path d="M2.56667 0H0V2.56667H2.56667V0Z" transform="translate(29.3999 5.1333)" fill="#31C37D"/>
<path d="M75.7167 0H1.28333C0.574612 0 0 0.574612 0 1.28333V75.7167C0 76.4254 0.574612 77 1.28333 77H75.7167C76.4254 77 77 76.4254 77 75.7167V1.28333C77 0.574612 76.4254 0 75.7167 0ZM12.8333 74.4333H2.56667V12.8333H12.8333V74.4333ZM74.4333 74.4333H15.4V12.8333H74.4333V74.4333ZM74.4333 10.2667H2.56667V2.56667H74.4333V10.2667Z" transform="translate(14)" fill="#31C37D"/>
<path d="M11.8323 8.98333C13.2591 7.41927 13.1478 4.99473 11.5837 3.56799C10.8732 2.9199 9.94503 2.5625 8.98333 2.56667H7.7V0H5.13333V2.56667H3.85V0H1.28333V2.56667C0.574612 2.56667 0 3.14128 0 3.85V14.1167C0 14.8254 0.574612 15.4 1.28333 15.4V17.9667H3.85V15.4H5.13333V17.9667H7.7V15.4H8.98333C11.1004 15.4093 12.8242 13.7007 12.8337 11.5837C12.8378 10.622 12.4804 9.69382 11.8323 8.98333ZM8.98333 12.8333H2.56667V10.2667H8.98333C9.69205 10.2667 10.2667 10.8413 10.2667 11.55C10.2667 12.2587 9.69205 12.8333 8.98333 12.8333ZM8.98333 7.7H2.56667V5.13333H8.98333C9.69205 5.13333 10.2667 5.70795 10.2667 6.41667C10.2667 7.12539 9.69205 7.7 8.98333 7.7Z" transform="translate(42.2334 23.1)" fill="#31C37D"/>
<path d="M14.1167 0C6.32026 0 0 6.32026 0 14.1167C0 21.9131 6.32026 28.2333 14.1167 28.2333C21.9131 28.2333 28.2333 21.9131 28.2333 14.1167C28.2242 6.32411 21.9092 0.00914375 14.1167 0ZM14.1167 25.6667C7.73786 25.6667 2.56667 20.4955 2.56667 14.1167C2.56667 7.7377 7.73786 2.56667 14.1167 2.56667C20.4956 2.56667 25.6667 7.7377 25.6667 14.1167C25.6596 20.4926 20.4926 25.6596 14.1167 25.6667Z" transform="translate(34.5332 17.9667)" fill="#31C37D"/>
<path d="M5.13333 0H0V2.56667H5.13333V0Z" transform="translate(65.3335 23.1)" fill="#31C37D"/>
<path d="M10.2667 0H0V2.56667H10.2667V0Z" transform="translate(73.0332 23.1)" fill="#31C37D"/>
<path d="M17.9667 0H0V2.56667H17.9667V0Z" transform="translate(65.3335 28.2333)" fill="#31C37D"/>
<path d="M17.9667 0H0V2.56667H17.9667V0Z" transform="translate(65.3335 33.3667)" fill="#31C37D"/>
<path d="M17.9667 0H0V2.56667H17.9667V0Z" transform="translate(65.3335 38.5)" fill="#31C37D"/>
<path d="M19.25 0H1.28333C0.574612 0 0 0.574612 0 1.28333V14.1167C0 14.8254 0.574612 15.4 1.28333 15.4H19.25C19.9587 15.4 20.5333 14.8254 20.5333 14.1167V1.28333C20.5333 0.574612 19.9587 0 19.25 0ZM17.9667 12.8333H2.56667V2.56667H17.9667V12.8333Z" transform="translate(64.05 55.1833)" fill="#31C37D"/>
<path d="M2.56667 0H0V2.56667H2.56667V0Z" transform="translate(38.3833 56.4667)" fill="#31C37D"/>
<path d="M12.8333 0H0V2.56667H12.8333V0Z" transform="translate(43.5166 56.4667)" fill="#31C37D"/>
<path d="M17.9667 0H0V2.56667H17.9667V0Z" transform="translate(38.3833 61.6)" fill="#31C37D"/>
<path d="M17.9667 0H0V2.56667H17.9667V0Z" transform="translate(38.3833 66.7333)" fill="#31C37D"/>
<defs>
<linearGradient id="paint0_linear" x2="1" gradientUnits="userSpaceOnUse" gradientTransform="translate(104) scale(104 10) rotate(90)">
<stop stop-color="#0F1931"/>
<stop offset="1" stop-color="#0F1931"/>
</linearGradient>
</defs>
</svg>
