<svg width="104" height="77" viewBox="0 0 104 77" fill="none" xmlns="http://www.w3.org/2000/svg">
<rect width="104" height="10" transform="translate(0 36)" fill="url(#paint0_linear)"/>
<path d="M47.4089 45.813C49.1809 44.0942 49.2239 41.2644 47.505 39.4925C47.4734 39.4599 47.4415 39.428 47.4089 39.3964C49.1809 37.6775 49.2239 34.8477 47.505 33.0758C47.4734 33.0432 47.4415 33.0113 47.4089 32.9797C49.1844 31.2523 49.2234 28.4126 47.4958 26.6371C46.65 25.7677 45.4879 25.2779 44.275 25.2797H33.5489L35.0607 13.9415C35.6523 9.47176 34.6885 4.9347 32.331 1.09144C32.3028 1.04716 32.2725 1.00433 32.2399 0.963103C31.3542 -0.143611 29.739 -0.322957 28.6323 0.562703C28.1435 0.953799 27.8145 1.51028 27.7072 2.12709L27.1938 5.5446C27.0477 6.5225 26.8177 7.48596 26.506 8.4244L21.7692 22.6476C21.2449 24.2195 19.7739 25.2797 18.1168 25.2797H1.28333C0.574612 25.2797 0 25.8543 0 26.563V52.2297C0 52.9384 0.574612 53.513 1.28333 53.513H44.275C46.7522 53.5164 48.763 51.511 48.7663 49.0339C48.7681 47.821 48.2784 46.6589 47.4089 45.813ZM10.2667 50.9464H2.56667V27.8464H10.2667V50.9464ZM44.275 34.263C45.3381 34.263 46.2 35.125 46.2 36.188C46.2 37.2511 45.3381 38.113 44.275 38.113H35.9333V40.6797H44.275C45.3381 40.6797 46.2 41.5416 46.2 42.6047C46.2 43.6678 45.3381 44.5297 44.275 44.5297H35.9333V47.0964H44.275C45.3381 47.0964 46.2 47.9583 46.2 49.0214C46.2 50.0844 45.3381 50.9464 44.275 50.9464H12.8333V27.8464H18.1168C20.8792 27.8491 23.3323 26.0813 24.2037 23.4599L28.952 9.23419C29.3112 8.15506 29.576 7.04674 29.7438 5.9219L30.2392 2.58524C32.2247 5.89463 33.0298 9.77928 32.5235 13.6052L30.818 26.3975C30.7265 27.1003 31.2222 27.7442 31.925 27.8356C31.9775 27.8425 32.0304 27.846 32.0833 27.8464H44.275C45.3381 27.8464 46.2 28.7083 46.2 29.7714C46.2 30.8344 45.3381 31.6964 44.275 31.6964H35.9333V34.263H44.275Z" transform="translate(15 23.4871)" fill="#31C37D"/>
<path d="M7.7 0C3.44735 0 0 3.44735 0 7.7C0.00417083 11.9509 3.44912 15.3958 7.7 15.4C11.9526 15.4 15.4 11.9526 15.4 7.7C15.4 3.44735 11.9526 0 7.7 0ZM7.7 12.8333C4.86496 12.8333 2.56667 10.535 2.56667 7.7C2.56667 4.86496 4.86496 2.56667 7.7 2.56667C10.535 2.56667 12.8333 4.86496 12.8333 7.7C12.8333 10.535 10.535 12.8333 7.7 12.8333Z" transform="translate(20.1333 5.1333)" fill="#31C37D"/>
<path d="M12.8333 0C5.74564 0 0 5.74564 0 12.8333C0.00786042 19.9178 5.74885 25.6588 12.8333 25.6667C19.921 25.6667 25.6667 19.921 25.6667 12.8333C25.6667 5.74564 19.921 0 12.8333 0ZM12.8333 23.1C7.16325 23.1 2.56667 18.5034 2.56667 12.8333C2.57308 7.16581 7.16581 2.57308 12.8333 2.56667C18.5034 2.56667 23.1 7.16325 23.1 12.8333C23.1 18.5034 18.5034 23.1 12.8333 23.1Z" transform="translate(15)" fill="#31C37D"/>
<path d="M7.7 0C3.44735 0 0 3.44735 0 7.7C0 11.9526 3.44735 15.4 7.7 15.4C11.9509 15.3958 15.3958 11.9509 15.4 7.7C15.4 3.44735 11.9526 0 7.7 0ZM7.7 12.8333C4.86496 12.8333 2.56667 10.535 2.56667 7.7C2.56667 4.86496 4.86496 2.56667 7.7 2.56667C10.535 2.56667 12.8333 4.86496 12.8333 7.7C12.8333 10.535 10.535 12.8333 7.7 12.8333Z" transform="translate(65.05 11.55)" fill="#31C37D"/>
<path d="M12.8333 0C5.74564 0 0 5.74564 0 12.8333C0 19.921 5.74564 25.6667 12.8333 25.6667C19.9178 25.6588 25.659 19.9178 25.6667 12.8333C25.6667 5.74564 19.921 0 12.8333 0ZM12.8333 23.1C7.16581 23.0936 2.57308 18.5009 2.56667 12.8333C2.56667 7.16325 7.16325 2.56667 12.8333 2.56667C18.5034 2.56667 23.1 7.16325 23.1 12.8333C23.1 18.5034 18.5034 23.1 12.8333 23.1Z" transform="translate(59.9165 6.41675)" fill="#31C37D"/>
<path d="M7.7 0C3.44735 0 0 3.44735 0 7.7C0 11.9526 3.44735 15.4 7.7 15.4C11.9526 15.4 15.4 11.9526 15.4 7.7C15.3958 3.44912 11.9509 0.00417083 7.7 0ZM7.7 12.8333C4.86496 12.8333 2.56667 10.535 2.56667 7.7C2.56667 4.86496 4.86496 2.56667 7.7 2.56667C10.535 2.56667 12.8333 4.86496 12.8333 7.7C12.8333 10.535 10.535 12.8333 7.7 12.8333Z" transform="translate(71.4668 50.05)" fill="#31C37D"/>
<path d="M12.8333 0C5.74564 0 0 5.74564 0 12.8333C0 19.921 5.74564 25.6667 12.8333 25.6667C19.921 25.6667 25.6667 19.921 25.6667 12.8333C25.659 5.74885 19.9178 0.0077 12.8333 0ZM12.8333 23.1C7.16325 23.1 2.56667 18.5034 2.56667 12.8333C2.56667 7.16325 7.16325 2.56667 12.8333 2.56667C18.5034 2.56667 23.1 7.16325 23.1 12.8333C23.0936 18.5009 18.5009 23.0936 12.8333 23.1Z" transform="translate(66.3335 44.9167)" fill="#31C37D"/>
<path d="M5.13333 2.56667V0H2.56667V2.56667H0V5.13333H2.56667V7.7H5.13333V5.13333H7.7V2.56667H5.13333Z" transform="translate(15 26.95)" fill="#31C37D"/>
<path d="M5.13333 2.56667V0H2.56667V2.56667H0V5.13333H2.56667V7.7H5.13333V5.13333H7.7V2.56667H5.13333Z" transform="translate(84.3 33.3667)" fill="#31C37D"/>
<path d="M2.56667 0H0V2.56667H2.56667V0Z" transform="translate(68.8999 74.4333)" fill="#31C37D"/>
<path d="M2.56667 0H0V2.56667H2.56667V0Z" transform="translate(43.2334)" fill="#31C37D"/>
<path d="M5.13333 2.56667V0H2.56667V2.56667H0V5.13333H2.56667V7.7H5.13333V5.13333H7.7V2.56667H5.13333Z" transform="translate(54.7834)" fill="#31C37D"/>
<path d="M2.56667 0H0V2.56667H2.56667V0Z" transform="translate(53.5 25.6667)" fill="#31C37D"/>
<path d="M2.56667 0H0V2.56667H2.56667V0Z" transform="translate(61.2 34.6499)" fill="#31C37D"/>
<path d="M5.13333 2.56667V0H2.56667V2.56667H0V5.13333H2.56667V7.7H5.13333V5.13333H7.7V2.56667H5.13333Z" transform="translate(84.3)" fill="#31C37D"/>
<path d="M2.56667 0H0V2.56667H2.56667V0Z" transform="translate(25.2666 34.6499)" fill="#31C37D"/>
<defs>
<linearGradient id="paint0_linear" x2="1" gradientUnits="userSpaceOnUse" gradientTransform="translate(104) scale(104 10) rotate(90)">
<stop stop-color="#121C36"/>
<stop offset="1" stop-color="#121C36"/>
</linearGradient>
</defs>
</svg>
