<svg width="104" height="77" viewBox="0 0 104 77" fill="none" xmlns="http://www.w3.org/2000/svg">
<rect width="104" height="10" transform="translate(0 36)" fill="url(#paint0_linear)"/>
<path d="M26.7432 26.5319L17.6029 18.8369C16.0173 17.4933 13.7424 17.0809 11.7338 17.6005V4.97763C11.7338 3.64607 11.1225 2.39572 10.0163 1.45954C8.90949 0.518395 7.43557 -1.08313e-06 5.86609 -1.08313e-06C2.63157 -1.08313e-06 3.24613e-08 2.233 3.24613e-08 4.97778V24.2172C3.24613e-08 26.6524 1.0387 29.0037 2.92498 30.8385L14.6793 42.2652V47.1753C14.6793 48.0092 15.4762 48.685 16.459 48.685H27.6486C28.6316 48.685 29.4283 48.009 29.4283 47.1753V32.0016C29.4283 29.9637 28.4499 27.9702 26.7432 26.5319ZM25.8687 45.6653H18.2388V41.6991C18.2388 41.3342 18.083 40.9814 17.8 40.7064L5.6069 28.8532C4.2865 27.5688 3.55912 25.9224 3.55912 24.2171V4.97763C3.55912 3.89797 4.59391 3.01939 5.86573 3.01939C6.48285 3.01939 7.06186 3.22272 7.49903 3.59463C7.93444 3.96294 8.17395 4.45412 8.17395 4.97763V20.1859C7.08632 22.079 7.51853 24.3618 9.30589 25.8782L17.1529 32.5334C17.5006 32.8281 17.9558 32.9755 18.4113 32.9755C18.8669 32.9755 19.3223 32.828 19.67 32.5331C20.3649 31.9434 20.3648 30.9875 19.6698 30.398L11.8229 23.7428C11.0697 23.1039 10.927 22.1206 11.4749 21.3505C11.574 21.2124 11.6912 21.0858 11.8229 20.9741C11.8348 20.964 11.8467 20.9536 11.8582 20.9432C12.7609 20.2104 14.1992 20.2203 15.0915 20.9766L24.2354 28.6745C25.2886 29.5623 25.8688 30.7439 25.8688 32.0015V45.6653H25.8687Z" transform="translate(14 28.3149)" fill="#31C37D"/>
<path d="M23.5622 -9.17911e-07C21.9926 -9.17911e-07 20.5186 0.518396 19.4151 1.45698C18.3056 2.39587 17.6945 3.64622 17.6945 4.97763V17.6002C15.6863 17.0806 13.4123 17.4922 11.8295 18.8333L2.68423 26.5327C0.978245 27.9704 -1.77455e-06 29.9638 -1.77455e-06 32.0018V47.1753C-1.77455e-06 48.0092 0.796882 48.685 1.77973 48.685H12.9692C13.9523 48.685 14.749 48.009 14.749 47.1753V42.2652L26.5037 30.838C28.39 29.0036 29.4285 26.6521 29.4285 24.2169V4.97793C29.4283 2.233 26.7967 -9.17911e-07 23.5622 -9.17911e-07ZM25.8686 24.2174C25.8686 25.9227 25.1414 27.5691 23.8212 28.8533L11.6279 40.7067C11.3452 40.9817 11.1892 41.3344 11.1892 41.6994V45.6655H3.55929V32.0018C3.55929 30.744 4.13936 29.5626 5.19206 28.6754L14.3407 20.9735C15.2289 20.2208 16.6668 20.2107 17.5695 20.9435C17.5811 20.9539 17.5929 20.9643 17.6048 20.9744C17.7365 21.0861 17.8537 21.2127 17.9528 21.3508C18.5006 22.1209 18.3579 23.1043 17.605 23.7429L9.75796 30.3981C9.06284 30.9877 9.06284 31.9436 9.75778 32.5332C10.1054 32.8281 10.5609 32.9757 11.0165 32.9757C11.4719 32.9757 11.9274 32.8283 12.2748 32.5335L20.1221 25.8781C21.9092 24.3619 22.3414 22.0791 21.2538 20.186V4.97793C21.2538 4.45442 21.4935 3.96324 21.9319 3.59238C22.3661 3.22302 22.9451 3.01984 23.5622 3.01984C24.834 3.01984 25.8688 3.89827 25.8688 4.97808V24.2174H25.8686Z" transform="translate(61.5715 28.3147)" fill="#31C37D"/>
<path d="M39.5921 9.52153C39.1338 8.78371 38.057 8.50097 37.1878 8.88958C36.3182 9.27834 35.9845 10.1915 36.4428 10.9292C37.7513 13.0357 38.4429 15.417 38.4429 17.8156C38.4429 25.9743 30.6187 32.6116 21.0012 32.6116C11.3836 32.6116 3.55947 25.9743 3.55947 17.8156C3.55947 9.65688 11.3836 3.01954 21.0012 3.01954C24.1854 3.01954 27.3002 3.75375 30.0093 5.14275C30.8499 5.57392 31.9445 5.34518 32.4531 4.63173C32.9615 3.91812 32.6917 2.98991 31.8507 2.55859C28.5862 0.884748 24.8346 1.92761e-07 21.0014 1.92761e-07C9.4213 1.92761e-07 -9.95481e-07 7.99221 -9.95481e-07 17.8157C-9.95481e-07 27.6392 9.4213 35.6314 21.0014 35.6314C32.5814 35.6314 42.0027 27.6392 42.0027 17.8157C42.0024 14.9281 41.169 12.0601 39.5921 9.52153Z" transform="translate(31.4985 12.6826)" fill="#31C37D"/>
<path d="M7.58537 10.9143H3.55947V1.50977C3.55947 0.675854 2.76259 4.58955e-08 1.77973 4.58955e-08C0.796705 4.58955e-08 1.19025e-06 0.676004 1.19025e-06 1.50977V12.4241C1.19025e-06 13.258 0.796882 13.9338 1.77973 13.9338H7.58537C8.5684 13.9338 9.36511 13.2578 9.36511 12.4241C9.36511 11.5903 8.5684 10.9143 7.58537 10.9143Z" transform="translate(50.7197 18.074)" fill="#31C37D"/>
<path d="M4.43329 8.99553e-07H1.77974C0.796706 8.99553e-07 -1.94768e-07 0.676006 -1.94768e-07 1.50977C-1.94768e-07 2.34354 0.796883 3.01954 1.77974 3.01954H4.43329C5.41632 3.01954 6.21303 2.34354 6.21303 1.50977C6.21303 0.676006 5.41632 8.99553e-07 4.43329 8.99553e-07Z" transform="translate(37.8523 28.9883)" fill="#31C37D"/>
<path d="M1.77973 1.08313e-06C0.796704 1.08313e-06 1.19025e-06 0.676004 1.19025e-06 1.50977V3.75931C1.19025e-06 4.59323 0.796882 5.26908 1.77973 5.26908C2.76276 5.26908 3.55947 4.59308 3.55947 3.75931V1.50977C3.55965 0.675854 2.76276 1.08313e-06 1.77973 1.08313e-06Z" transform="translate(50.7197 37.4431)" fill="#31C37D"/>
<path d="M1.77973 0C0.796704 0 1.19025e-06 0.676005 1.19025e-06 1.50977V6.32903C1.19025e-06 7.16295 0.796882 7.83881 1.77973 7.83881C2.76276 7.83881 3.55947 7.1628 3.55947 6.32903V1.50977C3.55965 0.676005 2.76276 0 1.77973 0Z" transform="translate(50.72)" fill="#31C37D"/>
<path d="M6.01923 5.05371L3.35131 0.800669C2.88949 0.0646581 1.81197 -0.214316 0.943994 0.17715C0.0763752 0.568918 -0.252837 1.48314 0.208983 2.2193L2.8769 6.47235C3.1969 6.98247 3.81295 7.27318 4.44975 7.27318C4.73163 7.27318 5.01794 7.21603 5.28422 7.09587C6.15183 6.7041 6.48105 5.78988 6.01923 5.05371Z" transform="translate(39.0549 2.69189)" fill="#31C37D"/>
<path d="M5.28422 0.17715C4.4166 -0.214316 3.33872 0.0646581 2.8769 0.800669L0.208985 5.05371C-0.252835 5.78988 0.0763776 6.7041 0.943996 7.09587C1.21045 7.21603 1.49641 7.27318 1.77846 7.27318C2.41526 7.27318 3.03131 6.98232 3.35131 6.47235L6.01923 2.2193C6.48087 1.48314 6.15183 0.568918 5.28422 0.17715Z" transform="translate(59.7163 2.69189)" fill="#31C37D"/>
<path d="M1.71919 -3.85523e-07C-0.571113 -3.85523e-07 -0.575013 3.01954 1.71919 3.01954C4.00968 3.01954 4.0134 -3.85523e-07 1.71919 -3.85523e-07Z" transform="translate(64.7517 17.8157)" fill="#31C37D"/>
<defs>
<linearGradient id="paint0_linear" x2="1" gradientUnits="userSpaceOnUse" gradientTransform="translate(104) scale(104 10) rotate(90)">
<stop stop-color="#121C36"/>
<stop offset="1" stop-color="#121C36"/>
</linearGradient>
</defs>
</svg>
